<?xml version="1.0" standalone="no"?>
<!DOCTYPE svg PUBLIC "-//W3C//DTD SVG 20010904//EN"
 "http://www.w3.org/TR/2001/REC-SVG-20010904/DTD/svg10.dtd">
<svg version="1.0" xmlns="http://www.w3.org/2000/svg"
 width="820.000000pt" height="820.000000pt" viewBox="0 0 820.000000 820.000000"
 preserveAspectRatio="xMidYMid meet">
<metadata>
Created by potrace 1.11, written by Peter Selinger 2001-2013
</metadata>
<g transform="translate(0.000000,820.000000) scale(0.100000,-0.100000)"
fill="#000000" stroke="none">
<path d="M1269 7229 c-1 -2 -3 -25 -5 -50 -2 -26 -6 -57 -8 -70 -3 -13 -5 -32
-5 -41 -1 -15 -18 -16 -161 -16 -88 1 -163 -2 -167 -6 -4 -4 -8 -759 -9 -1679
-1 -920 -4 -1682 -7 -1694 -3 -12 -8 -54 -12 -95 -3 -40 -8 -89 -10 -108 -2
-19 -7 -64 -11 -100 -3 -36 -8 -76 -9 -90 -2 -14 -6 -59 -10 -100 -4 -41 -8
-86 -10 -100 -1 -14 -6 -56 -10 -95 -3 -38 -8 -81 -10 -95 -2 -14 -7 -59 -11
-100 -3 -41 -8 -86 -9 -100 -2 -14 -6 -54 -9 -90 -8 -82 -16 -155 -21 -200 -2
-19 -7 -64 -10 -100 -4 -36 -8 -78 -10 -95 -2 -16 -6 -66 -10 -110 -4 -44 -8
-87 -10 -95 -2 -8 -6 -53 -10 -100 -4 -47 -8 -92 -10 -100 -2 -8 -6 -49 -10
-90 -4 -41 -9 -83 -11 -93 -2 -12 4 -17 19 -18 12 0 31 -2 42 -4 11 -2 49 -6
84 -9 35 -3 67 -8 70 -12 3 -3 7 -94 7 -202 1 -109 2 -204 3 -212 1 -13 244
-15 2119 -15 1856 -1 2192 -3 2325 -20 15 -2 60 -6 100 -10 40 -3 83 -8 97
-10 35 -5 113 -13 192 -20 37 -3 75 -7 85 -9 10 -2 56 -7 103 -11 47 -3 96 -8
110 -10 24 -4 63 -8 195 -20 33 -3 76 -8 95 -10 19 -2 64 -7 100 -10 36 -4 79
-8 95 -10 17 -2 57 -6 90 -10 33 -3 74 -8 90 -10 17 -2 68 -7 115 -11 47 -3
88 -8 93 -11 4 -2 7 4 8 14 0 10 3 33 5 51 2 17 6 47 8 65 2 17 5 37 5 43 1 8
50 11 162 10 88 0 163 3 166 8 4 5 7 763 8 1685 1 922 4 1685 7 1696 3 11 9
56 13 100 4 44 8 94 10 110 2 17 7 59 10 95 3 36 8 76 10 90 2 14 7 59 11 100
3 41 7 86 9 100 1 14 6 59 10 100 4 41 8 82 10 90 2 8 6 53 10 100 3 47 8 96
10 110 5 34 13 111 20 190 3 36 8 81 10 100 3 19 7 64 10 100 3 36 7 76 10 90
2 14 7 54 10 90 3 36 7 81 9 100 3 19 7 67 11 105 4 39 9 84 10 100 2 17 7 67
11 113 7 82 7 82 -17 83 -32 1 -86 7 -129 13 -19 2 -42 5 -51 5 -14 1 -16 25
-17 204 0 111 -1 209 -1 217 -1 13 -245 15 -2134 15 -1172 0 -2166 4 -2207 8
-41 4 -88 9 -105 11 -31 4 -134 15 -195 21 -19 2 -66 7 -105 10 -66 6 -93 9
-182 20 -21 2 -69 7 -108 10 -38 3 -88 8 -111 11 -23 3 -61 7 -85 9 -41 3 -91
8 -194 20 -22 3 -69 7 -105 10 -36 3 -78 7 -95 10 -16 3 -63 7 -103 11 -40 3
-81 7 -92 9 -31 6 -190 17 -191 14z"/>
</g>
</svg>
